<?xml version="1.0" encoding="UTF-8"?>
<svg version="1.1" xmlns="http://www.w3.org/2000/svg" width="500" height="500">
<path d="M0 0 C165 0 330 0 500 0 C500 165 500 330 500 500 C335 500 170 500 0 500 C0 335 0 170 0 0 Z " fill="#FDFEFE" transform="translate(0,0)"/>
<path d="M0 0 C0.66 0 1.32 0 2 0 C24.15652381 29.61183807 32.06675311 68.14804817 26.9375 104.375 C23.22096121 127.25225785 13.53413512 149.94669125 -1 168 C-1.48404297 168.60215332 -1.96808594 169.20430664 -2.46679688 169.82470703 C-21.10950567 192.75619858 -45.0104445 207.89173438 -73 217 C-73.73428223 217.24153809 -74.46856445 217.48307617 -75.22509766 217.73193359 C-86.47763283 221.22895553 -97.94029328 221.3807137 -109.625 221.4375 C-110.35777161 221.44394531 -111.09054321 221.45039063 -111.84552002 221.45703125 C-140.37322945 221.6103588 -167.71969014 213.59517927 -191 197 C-191.54462891 196.61618164 -192.08925781 196.23236328 -192.65039062 195.83691406 C-218.41511654 177.48374928 -235.04055183 152.43328901 -244.9375 122.5625 C-245.27346191 121.58700195 -245.27346191 121.58700195 -245.61621094 120.59179688 C-247.04023013 116.07117476 -247.1888126 112.59029553 -246 108 C-244.515 107.01 -244.515 107.01 -243 106 C-242.74605469 106.90621094 -242.49210937 107.81242187 -242.23046875 108.74609375 C-240.30667724 115.55501876 -238.30720442 122.30910718 -236 129 C-229.03782212 122.6905263 -219.75385598 112.40777584 -218.625 102.8125 C-218.81575971 100.08153608 -218.81575971 100.08153608 -219.97265625 98.23828125 C-222.34204295 93.07608132 -222.15593859 87.46122009 -221 82 C-217.9320313 77.80113773 -214.23832337 74.96682636 -210 72 C-209.09765625 71.35804688 -208.1953125 70.71609375 -207.265625 70.0546875 C-205.20643917 68.64473542 -203.13251588 67.29530594 -201 66 C-199.03103118 67.55048768 -197.07554295 69.11412153 -195.125 70.6875 C-194.29162109 71.34008789 -194.29162109 71.34008789 -193.44140625 72.00585938 C-190.0532276 74.76130587 -188.36794263 76.88242394 -187 81 C-184.52093031 83.7295585 -184.52093031 83.7295585 -182 86 C-181 87 -181 87 -180.84765625 90.16015625 C-179.71816709 95.27669009 -177.33895904 97.16093219 -173.4375 100.4375 C-172.82197266 100.97826172 -172.20644531 101.51902344 -171.57226562 102.07617188 C-170.061537 103.39952331 -168.53251703 104.70194316 -167 106 C-168.57964071 109.33402044 -170.16507912 111.58197925 -173 114 C-173.680625 114.144375 -174.36125 114.28875 -175.0625 114.4375 C-177.27021797 114.85119531 -177.27021797 114.85119531 -178.5625 117.375 C-179.036875 118.24125 -179.51125 119.1075 -180 120 C-181.78887411 122.33625831 -182.66372695 122.9373906 -185.6015625 123.484375 C-186.59929687 123.57203125 -187.59703125 123.6596875 -188.625 123.75 C-194.61736477 124.56582797 -197.44954528 126.6519971 -201.88671875 130.578125 C-204.40983238 132.27574674 -205.58689463 132.33355255 -208.5625 131.9375 C-209.696875 131.628125 -210.83125 131.31875 -212 131 C-212.33 131.99 -212.66 132.98 -213 134 C-215.328125 134.80859375 -215.328125 134.80859375 -218.25 135.4375 C-222.76460506 136.53833755 -225.55444327 137.77673725 -229 141 C-229.66 141 -230.32 141 -231 141 C-213.15685932 174.92399587 -185.87031543 198.4219251 -149.27050781 210.3203125 C-143.60125765 212.01742997 -137.84533565 213.09965209 -132 214 C-130.38544922 214.27457031 -130.38544922 214.27457031 -128.73828125 214.5546875 C-92.63939466 218.85486835 -56.56732319 208.76296894 -27.9296875 186.53955078 C-16.90722447 177.74556648 -7.83077848 167.74616772 0 156 C-0.33 155.67 -0.66 155.34 -1 155 C-1.2165625 153.3603125 -1.2165625 153.3603125 -1.4375 151.6875 C-1.91473064 148.55898801 -2.40460685 146.65898859 -4 144 C-5.010625 144.45375 -6.02125 144.9075 -7.0625 145.375 C-9.68553267 146.52423947 -11.91351021 147.21315238 -14.75 147.875 C-18.68794934 149.23813631 -19.0247102 150.49834991 -21 154 C-23.5859375 154.65234375 -23.5859375 154.65234375 -26 155 C-26.02705308 152.58325776 -26.04686438 150.1668206 -26.0625 147.75 C-26.07087891 147.06808594 -26.07925781 146.38617188 -26.08789062 145.68359375 C-26.10428392 142.30657446 -26.05628768 139.22708361 -25 136 C-25.61875 135.814375 -26.2375 135.62875 -26.875 135.4375 C-29 134 -29 134 -29.75 130.625 C-30.58425136 126.99765928 -30.58425136 126.99765928 -32.86328125 125.79296875 C-34.29610183 125.15418018 -35.74998028 124.56013382 -37.22265625 124.01953125 C-39 123 -39 123 -39.74609375 120.88671875 C-39.82988281 120.26410156 -39.91367187 119.64148438 -40 119 C-41.32 119 -42.64 119 -44 119 C-44.99 115.535 -44.99 115.535 -46 112 C-46.99 112 -47.98 112 -49 112 C-48.4021337 116.14223514 -48.4021337 116.14223514 -47 120 C-44.69397477 121.63498787 -42.75795874 122.18282704 -40 123 C-39.6875 125.3125 -39.6875 125.3125 -40 128 C-44.40291908 131.76378566 -48.83984625 131.3559558 -54.3125 131.1875 C-55.14845703 131.17396484 -55.98441406 131.16042969 -56.84570312 131.14648438 C-58.89741498 131.11131217 -60.94879275 131.05751048 -63 131 C-62.97679687 130.32195312 -62.95359375 129.64390625 -62.9296875 128.9453125 C-62.81733219 123.15098864 -63.20480366 117.92727367 -64.5625 112.2890625 C-65.03593521 109.81198184 -65.07112318 107.51598244 -65 105 C-65.66 105 -66.32 105 -67 105 C-66.72042911 108.54272945 -66.42418689 112.0838775 -66.125 115.625 C-66.04636719 116.62402344 -65.96773437 117.62304688 -65.88671875 118.65234375 C-65.33504418 126.03775962 -65.33504418 126.03775962 -63 133 C-59.47548841 134.46022435 -59.47548841 134.46022435 -56 135 C-57.28432965 138.96001643 -58.34944707 140.94071373 -62 143 C-66.21173003 144.55083083 -70.47193058 145.86148999 -74.8125 147 C-79.1387044 149.71448119 -79.7583115 152.63431564 -81.17578125 157.40625 C-82 160 -82 160 -84 163 C-86.1640625 163.51171875 -86.1640625 163.51171875 -88.625 163.6875 C-89.44226563 163.75324219 -90.25953125 163.81898438 -91.1015625 163.88671875 C-91.72804687 163.92410156 -92.35453125 163.96148437 -93 164 C-93.03996094 164.73605469 -93.07992187 165.47210938 -93.12109375 166.23046875 C-94.68188672 171.14870082 -99.34856307 172.9637723 -103.62890625 175.38671875 C-108.0266578 177.49132059 -110.23998916 177.85000194 -115 177 C-116.67676889 176.35916591 -118.34572053 175.6968369 -120 175 C-120.17553906 170.83387292 -120.28127105 166.66870678 -120.375 162.5 C-120.42527344 161.32695312 -120.47554688 160.15390625 -120.52734375 158.9453125 C-120.66218548 150.94470343 -119.50247439 146.7928881 -114 141 C-112.19602023 137.39204047 -112.99086508 133.13084645 -113.0625 129.1640625 C-113 126 -113 126 -112.37890625 123.7421875 C-112.25386719 123.16726563 -112.12882813 122.59234375 -112 122 C-116.17553533 116.61221248 -121.8775974 113.88369885 -128.3125 112.0625 C-131.81291674 110.67861431 -132.48560886 109.40738006 -134 106 C-135.88086213 100.92167225 -136.24505254 97.29147331 -135 92 C-134.34 91.34 -133.68 90.68 -133 90 C-132.773125 88.88625 -132.54625 87.7725 -132.3125 86.625 C-130.79177838 82.42491173 -129.71703903 81.59825313 -125.87890625 79.69921875 C-123.31440196 78.7448606 -120.69321735 78.43843073 -118 78 C-117.01 76.515 -117.01 76.515 -116 75 C-113.375 73.8125 -113.375 73.8125 -111 73 C-111.226875 72.484375 -111.45375 71.96875 -111.6875 71.4375 C-112.16513722 67.71192968 -110.61290239 65.35483696 -109 62 C-105.0507432 62.55105909 -101.65079826 63.38935371 -98 65 C-97.31506627 62.14221967 -97.31506627 62.14221967 -97 59 C-97.66 58.01 -98.32 57.02 -99 56 C-96.36 56 -93.72 56 -91 56 C-90.67 55.34 -90.34 54.68 -90 54 C-92.64 53.67 -95.28 53.34 -98 53 C-97.01 52.01 -97.01 52.01 -96 51 C-96 50.01 -96 49.02 -96 48 C-95.01 48 -94.02 48 -93 48 C-93 47.01 -93 46.02 -93 45 C-94.32 45 -95.64 45 -97 45 C-97.33 45.99 -97.66 46.98 -98 48 C-99.32 48 -100.64 48 -102 48 C-101.67 46.35 -101.34 44.7 -101 43 C-100.05125 42.938125 -99.1025 42.87625 -98.125 42.8125 C-97.09375 42.544375 -96.0625 42.27625 -95 42 C-93.54708727 39.53744315 -93.54708727 39.53744315 -93 37 C-91.68 37 -90.36 37 -89 37 C-89.01740234 37.97839844 -89.01740234 37.97839844 -89.03515625 38.9765625 C-89.08470994 43.7761914 -88.99413751 48.27784685 -88 53 C-85.03 53 -82.06 53 -79 53 C-78.34 51.35 -77.68 49.7 -77 48 C-76.01 48 -75.02 48 -74 48 C-74 49.32 -74 50.64 -74 52 C-73.01 52 -72.02 52 -71 52 C-71.33 50.02 -71.66 48.04 -72 46 C-74.97 45.505 -74.97 45.505 -78 45 C-77.38874579 38.52070537 -77.38874579 38.52070537 -75.72265625 36.2890625 C-73.58057933 34.6861478 -72.39821375 34.70138923 -69.75 34.6875 C-65.06536241 34.33710434 -62.86693891 32.75023244 -59.60546875 29.47265625 C-56.83067398 26.92740654 -54.54224126 26.06379309 -50.8125 25.625 C-41.02894455 26.58731693 -35.71992627 31.75080235 -29.6875 39.0625 C-28.96949219 39.91972656 -28.25148438 40.77695313 -27.51171875 41.66015625 C-26.76341797 42.81837891 -26.76341797 42.81837891 -26 44 C-26.33 44.99 -26.66 45.98 -27 47 C-30.71888239 46.49287967 -33.73454239 45.88391785 -37 44 C-36.67 45.98 -36.34 47.96 -36 50 C-35.01 49.34 -34.02 48.68 -33 48 C-32.01 48.66 -31.02 49.32 -30 50 C-30 49.34 -30 48.68 -30 48 C-28.02 48 -26.04 48 -24 48 C-23.34 46.68 -22.68 45.36 -22 44 C-21.67 44.99 -21.34 45.98 -21 47 C-21.33 47.66 -21.66 48.32 -22 49 C-16.06 48.505 -16.06 48.505 -10 48 C-10 48.99 -10 49.98 -10 51 C-7.36 51.33 -4.72 51.66 -2 52 C-1.67 51.01 -1.34 50.02 -1 49 C-0.59007812 49.49371094 -0.18015625 49.98742187 0.2421875 50.49609375 C0.78101563 51.13675781 1.31984375 51.77742188 1.875 52.4375 C2.40867187 53.07558594 2.94234375 53.71367187 3.4921875 54.37109375 C4.9222757 56.10805004 4.9222757 56.10805004 7 57 C7.061875 56.278125 7.12375 55.55625 7.1875 54.8125 C8.26192665 51.09333083 10.05732994 49.45222505 13 47 C13.99 47 14.98 47 16 47 C15.39891424 52.65020618 13.92471317 57.66164461 12 63 C12.66 62.01 13.32 61.02 14 60 C14.99 60 15.98 60 17 60 C16.690625 58.8553125 16.690625 58.8553125 16.375 57.6875 C16 55 16 55 18 52 C17.67879979 46.5395964 16.02376619 42.01542057 14 37 C7.32843004 36.507835 1.3966806 36.58965789 -4 41 C-5.12815365 43.6147267 -5.12815365 43.6147267 -5 46 C-6.32 45.34 -7.64 44.68 -9 44 C-8.65638105 41.45721976 -8.34971457 39.50514327 -6.875 37.375 C-0.18804343 32.47123185 5.04111249 32.80544726 13 34 C8.84661599 24.7358917 4.64629471 15.46944207 -1 7 C-0.625 3.3125 -0.625 3.3125 0 0 Z " fill="#023FDE" transform="translate(342,177)"/>
<path d="M0 0 C1.87217611 2.02389217 3.45050303 3.97075062 5.0625 6.1875 C6.03486831 7.46605456 7.00887178 8.74336693 7.984375 10.01953125 C8.72977539 11.00493896 8.72977539 11.00493896 9.49023438 12.01025391 C11.88699292 15.16898323 14.32074651 18.29069274 16.8125 21.375 C17.24377197 21.93985107 17.67504395 22.50470215 18.11938477 23.08666992 C19.51502856 24.87640117 19.51502856 24.87640117 22 27 C25.12040727 27.28696873 25.12040727 27.28696873 28 27 C31.21775827 30.04382539 32.49930857 32.61895002 33 37 C31.68 37.33 30.36 37.66 29 38 C32.63 42.95 36.26 47.9 40 53 C41.505625 52.71125 43.01125 52.4225 44.5625 52.125 C46.70792382 51.74766415 48.85378622 51.37281648 51 51 C51.99515625 50.80921875 52.9903125 50.6184375 54.015625 50.421875 C63.15651386 48.90561381 72.25763025 48.7835044 81.5 48.75 C83.46900269 48.73622314 83.46900269 48.73622314 85.4777832 48.72216797 C91.66953863 48.74204009 97.1776982 48.79033124 103 51 C103 55 103 55 101.09375 57 C97.08222042 59.59331205 92.94603175 61.28618279 88.5 63 C87.15325195 63.52436646 87.15325195 63.52436646 85.77929688 64.05932617 C72.17517178 69.29779454 59.43529625 72.03601412 45 74 C43.02 80.27 41.04 86.54 39 93 C40.32 93 41.64 93 43 93 C42.88590407 94.45922693 42.75834456 95.91740598 42.625 97.375 C42.55539062 98.18710938 42.48578125 98.99921875 42.4140625 99.8359375 C42 102 42 102 40 104 C37.375 104.125 37.375 104.125 35 104 C34.5978125 105.20398438 34.195625 106.40796875 33.78125 107.6484375 C33.36552734 108.88352051 33.36552734 108.88352051 32.94140625 110.14355469 C32.2825531 112.14266823 31.64636075 114.14932756 31.02734375 116.16113281 C23.84233142 139.08821551 23.84233142 139.08821551 16.12109375 143.31640625 C11.01887618 145.41952954 5.55469456 147 0 147 C2.40633996 136.64163199 5.57551199 126.58292905 8.81689453 116.46533203 C9.48806304 114.36596274 10.15433035 112.26508172 10.8203125 110.1640625 C11.21492676 108.93123535 11.60954102 107.6984082 12.01611328 106.42822266 C12.91936167 103.28097355 13.49741995 100.23021385 14 97 C14.33 96.01 14.66 95.02 15 94 C15.66 93.67 16.32 93.34 17 93 C17.62669199 90.83532539 18.15427374 88.64135476 18.625 86.4375 C19.01558594 84.64119141 19.01558594 84.64119141 19.4140625 82.80859375 C19.60742188 81.88175781 19.80078125 80.95492187 20 80 C5.03890772 80.38460391 -9.75991932 81.94304577 -24.61962891 83.62792969 C-32.45597391 84.50426252 -40.09910363 85.24840546 -48 85 C-48.10183594 85.67804688 -48.20367187 86.35609375 -48.30859375 87.0546875 C-49.7517469 93.20235684 -52.87132755 101.66384571 -58.06640625 105.54296875 C-60.125 106.3125 -60.125 106.3125 -64 107 C-64.99 107.226875 -65.98 107.45375 -67 107.6875 C-67.66 107.790625 -68.32 107.89375 -69 108 C-67.48526781 100.01323028 -64.83197448 92.59877122 -62 85 C-63.32 85 -64.64 85 -66 85 C-66.33 85.66 -66.66 86.32 -67 87 C-67.41507813 86.53851563 -67.83015625 86.07703125 -68.2578125 85.6015625 C-88.54087563 64.13037015 -121.53177573 48.9484972 -151.10693359 47.92724609 C-155.74068671 47.84372785 -160.36707613 47.89294913 -165 48 C-159.11442653 50.75233498 -154.35703378 52.4828992 -147.8125 51.9453125 C-146 52 -146 52 -144 54 C-143.83177734 54.98226562 -143.83177734 54.98226562 -143.66015625 55.984375 C-143.17574562 58.19917359 -143.17574562 58.19917359 -140.93359375 59.265625 C-140.10988281 59.59046875 -139.28617188 59.9153125 -138.4375 60.25 C-137.61121094 60.58515625 -136.78492188 60.9203125 -135.93359375 61.265625 C-135.29550781 61.50796875 -134.65742188 61.7503125 -134 62 C-134.020625 62.969375 -134.04125 63.93875 -134.0625 64.9375 C-134.35618499 67.87465895 -134.35618499 67.87465895 -133 69 C-131.65252916 69.23075082 -130.29622435 69.41153063 -128.9375 69.5625 C-127.638125 69.706875 -126.33875 69.85125 -125 70 C-125 70.99 -125 71.98 -125 73 C-126.0725 73.2475 -127.145 73.495 -128.25 73.75 C-132.12552798 75.04184266 -133.62679386 75.74782862 -136 79 C-136.23976562 80.15886719 -136.47953125 81.31773437 -136.7265625 82.51171875 C-138 86 -138 86 -140.66015625 87.3828125 C-141.78292969 87.62773437 -142.90570313 87.87265625 -144.0625 88.125 C-145.96128906 88.58326172 -145.96128906 88.58326172 -147.8984375 89.05078125 C-148.57100586 89.20369629 -149.24357422 89.35661133 -149.93652344 89.51416016 C-153.38818681 90.32684474 -156.7855599 91.31450214 -160.1875 92.3125 C-160.88456055 92.51472168 -161.58162109 92.71694336 -162.29980469 92.92529297 C-168.8943709 94.88161141 -175.32695044 97.23834965 -181.7565918 99.67700195 C-182.51367432 99.96406006 -183.27075684 100.25111816 -184.05078125 100.546875 C-184.71762939 100.80307617 -185.38447754 101.05927734 -186.0715332 101.32324219 C-188.02844577 102.00998249 -189.98134923 102.52885967 -192 103 C-192.21094896 96.77700574 -192.28492876 92.48654012 -187.875 87.6875 C-187.25625 87.130625 -186.6375 86.57375 -186 86 C-186.66 86 -187.32 86 -188 86 C-188 85.01 -188 84.02 -188 83 C-186.68 83 -185.36 83 -184 83 C-184.495 82.64808594 -184.99 82.29617187 -185.5 81.93359375 C-188.27571418 78.35552469 -187.03108438 73.67835919 -186.8125 69.34765625 C-187.0174512 65.68842332 -187.40011863 64.50764611 -190 62 C-192.01326895 60.69435358 -192.01326895 60.69435358 -194.1875 59.75 C-194.90292969 59.41484375 -195.61835938 59.0796875 -196.35546875 58.734375 C-196.89816406 58.49203125 -197.44085938 58.2496875 -198 58 C-198 56.35 -198 54.7 -198 53 C-204.93 55.475 -204.93 55.475 -212 58 C-211.34 58.33 -210.68 58.66 -210 59 C-209.76751665 60.95950256 -209.53895573 62.91963823 -209.33984375 64.8828125 C-208.84805253 67.94661525 -207.49380017 70.29966892 -206 73 C-203.83080085 77.49907971 -202.29698514 80.96172684 -203 86 C-203.99 86.66 -204.98 87.32 -206 88 C-206.66 87.67 -207.32 87.34 -208 87 C-207.67 88.65 -207.34 90.3 -207 92 C-209.60623142 91.64780657 -211.60789115 91.23526531 -213.875 89.875 C-215.6925076 86.84582066 -214.67456103 84.37280513 -214 81 C-213.7215625 79.0509375 -213.7215625 79.0509375 -213.4375 77.0625 C-213.293125 76.051875 -213.14875 75.04125 -213 74 C-217.09947304 70.86293483 -217.09947304 70.86293483 -222 70 C-223.98 73.96 -225.96 77.92 -228 82 C-232.59037956 80.85240511 -233.33669182 79.70960782 -236 76 C-236.55429688 76.34933594 -237.10859375 76.69867188 -237.6796875 77.05859375 C-238.40414062 77.51363281 -239.12859375 77.96867187 -239.875 78.4375 C-240.59429687 78.88996094 -241.31359375 79.34242188 -242.0546875 79.80859375 C-244 81 -244 81 -246 82 C-244.44650818 87.50783463 -243.1527786 90.97699573 -239 95 C-237.79720222 97.62474939 -236.91539649 100.25381054 -236 103 C-230.91371881 100.38812588 -229.00980347 97.55420878 -226.9375 92.3125 C-226 90 -226 90 -224 88 C-221.67221128 88.22526988 -220.25433104 88.83044597 -218.3125 90.125 C-216.36694189 92.90436873 -216.31331211 95.67889163 -216 99 C-213.69 99.33 -211.38 99.66 -209 100 C-209 103.63 -209 107.26 -209 111 C-210.51851563 111.81984375 -212.03703125 112.6396875 -213.6015625 113.484375 C-215.60945658 114.57276618 -217.61726456 115.66131622 -219.625 116.75 C-220.62402344 117.28882813 -221.62304688 117.82765625 -222.65234375 118.3828125 C-228.71575722 121.65735878 -228.71575722 121.65735878 -234.53125 125.34375 C-237.09213611 127.06181283 -238.96103585 127.64247481 -242 128 C-242.33 128.99 -242.66 129.98 -243 131 C-244.671875 132.02734375 -244.671875 132.02734375 -246.75 132.9375 C-250.2525517 134.56908434 -253.07513084 136.44073949 -256 139 C-256.20625 138.21625 -256.4125 137.4325 -256.625 136.625 C-257.79544214 133.71013083 -257.79544214 133.71013083 -261 132.75 C-262.485 132.37875 -262.485 132.37875 -264 132 C-264.66 131.67 -265.32 131.34 -266 131 C-270.26472726 130.50670415 -270.26472726 130.50670415 -273.875 132.5 C-275.50517055 136.12260123 -275.19772667 139.04546658 -275 143 C-271.56484998 143.62457273 -268.50935186 144 -265 144 C-265.92838287 145.31896465 -266.86805732 146.62998689 -267.8125 147.9375 C-268.33457031 148.66839844 -268.85664063 149.39929688 -269.39453125 150.15234375 C-271 152 -271 152 -274 153 C-274.226875 152.05125 -274.45375 151.1025 -274.6875 150.125 C-275.65092814 146.84478829 -275.65092814 146.84478829 -278.3125 145.9375 C-279.199375 145.628125 -280.08625 145.31875 -281 145 C-282.70586575 143.37347684 -284.3777546 141.70993434 -286 140 C-286.66 139.67 -287.32 139.34 -288 139 C-292.16482278 155.09852404 -292.16482278 155.09852404 -294.10302734 171.57983398 C-294.39595826 175.46919746 -294.96628154 176.96093593 -297.5625 179.96875 C-298.7690625 180.97421875 -298.7690625 180.97421875 -300 182 C-300.22844171 172.11355023 -299.9840799 162.73690078 -298 153 C-297.76667969 151.79214844 -297.53335938 150.58429688 -297.29296875 149.33984375 C-294.77122771 137.83655928 -290.14251001 127.55517512 -285 117 C-284.50628906 115.95972656 -284.01257813 114.91945313 -283.50390625 113.84765625 C-268.0451855 83.34305892 -238.30303023 60.13159875 -206.42626953 48.77441406 C-170.49873262 37.30710202 -132.15652044 39.7343077 -98.40356445 56.6550293 C-85.77379968 63.22310715 -75.86647302 69.919345 -68 82 C-65.525 81.505 -65.525 81.505 -63 81 C-67.84037068 72.60988179 -67.84037068 72.60988179 -72.9375 64.375 C-75 61 -75 61 -75 59 C-67.75834809 58.71033392 -63.06178866 59.70148035 -57.484375 64.48828125 C-56 66 -56 66 -54.640625 67.91796875 C-53.19752108 69.94885376 -51.96339322 71.46037205 -50 73 C-43.39681255 73.55138178 -36.61727568 71.23906802 -30.375 69.3125 C-21.42315367 66.64687524 -12.42368797 64.2952656 -3.34716797 62.09301758 C2.83259711 60.58317062 8.92595805 58.89156156 15 57 C15 53.26169624 13.91853755 51.98653944 11.8125 48.9375 C11.22082031 48.05964844 10.62914062 47.18179688 10.01953125 46.27734375 C7.80854892 43.78410836 6.15204282 42.96357786 3 42 C3 41.34 3 40.68 3 40 C3.66 39.67 4.32 39.34 5 39 C4.59160889 38.39003174 4.18321777 37.78006348 3.76245117 37.15161133 C1.90290806 34.37272573 0.04518794 31.59262609 -1.8125 28.8125 C-2.45509766 27.85279297 -3.09769531 26.89308594 -3.75976562 25.90429688 C-4.38173828 24.97294922 -5.00371094 24.04160156 -5.64453125 23.08203125 C-6.50075073 21.80162964 -6.50075073 21.80162964 -7.37426758 20.49536133 C-12.05794986 13.30630642 -12.05794986 13.30630642 -11.5625 10.6875 C-5.34883721 0 -5.34883721 0 0 0 Z " fill="#0440DE" transform="translate(392,78)"/>
<path d="M0 0 C0 0.33 0 0.66 0 1 C-0.81863525 1.15033691 -1.63727051 1.30067383 -2.48071289 1.45556641 C-69.90808828 13.92937157 -138.42104851 37.56296612 -189.74609375 84.93359375 C-191.7463006 86.76740558 -193.79343238 88.51037367 -195.875 90.25 C-213.90591683 106.06340488 -230.89682202 128.24713058 -233.2734375 152.828125 C-233.6457266 163.08039414 -230.98227541 171.43717585 -224 179 C-219.72520644 183.249196 -215.5604374 186.63681411 -210 189 C-213 190 -213 190 -215.85546875 188.8828125 C-226.28404882 183.38121692 -233.8953044 177.02918827 -238.1484375 165.6875 C-242.79997761 145.54505107 -236.49638307 127.04481343 -226 110 C-216.28963059 94.99859424 -203.75279034 81.42687525 -189.83984375 70.28125 C-188.00096157 68.80407367 -186.17921177 67.3052046 -184.37890625 65.78125 C-176.98146886 59.53794475 -169.15758941 54.18320681 -161 49 C-160.41798828 48.62907227 -159.83597656 48.25814453 -159.23632812 47.87597656 C-112.50525856 18.35742922 -55.66163185 -0.91749943 0 0 Z " fill="#0843DF" transform="translate(313,163)"/>
<path d="M0 0 C5.15663893 3.17245395 8.55943363 7.58738669 10.375 13.375 C11.58068736 23.16562795 11.61511088 33.28596737 5.375 41.375 C0.86162045 46.72322432 -5.38125647 48.83548532 -12.14453125 49.6953125 C-18.13446108 49.97134613 -22.75587937 48.9484748 -27.625 45.375 C-32.68705456 40.62791773 -35.60538716 36.05652473 -35.9609375 29.01171875 C-35.98471104 27.36209908 -35.99743224 25.71228897 -36 24.0625 C-36.02449219 23.24587891 -36.04898438 22.42925781 -36.07421875 21.58789062 C-36.10702205 14.72653317 -34.38942755 9.57852007 -29.87890625 4.3515625 C-29.32074219 3.90554687 -28.76257813 3.45953125 -28.1875 3 C-27.63191406 2.53851563 -27.07632813 2.07703125 -26.50390625 1.6015625 C-19.29615872 -3.10370304 -7.85652684 -3.60528957 0 0 Z " fill="#0641DE" transform="translate(243.625,36.625)"/>
<path d="M0 0 C5.35739585 0.86375327 10.59964086 1.98798986 15.875 3.25 C16.73480469 3.44207031 17.59460938 3.63414063 18.48046875 3.83203125 C25.30095274 5.47764119 31.39029471 7.90097497 36 13.375 C37.56142836 17.47374943 37.72330501 20.85460379 36.30859375 25.05078125 C34.08647304 29.98779422 31.43251739 32.91650964 27 36 C26.34 36 25.68 36 25 36 C25.433125 37.19238281 25.86625 38.38476562 26.3125 39.61328125 C26.87524861 41.1795982 27.43773498 42.74600939 28 44.3125 C28.28617187 45.09818359 28.57234375 45.88386719 28.8671875 46.69335938 C29.13789063 47.45068359 29.40859375 48.20800781 29.6875 48.98828125 C29.93886719 49.68477783 30.19023437 50.38127441 30.44921875 51.09887695 C31 53 31 53 31 56 C28.75106046 56.10823773 26.50062425 56.18569645 24.25 56.25 C22.99703125 56.29640625 21.7440625 56.3428125 20.453125 56.390625 C17 56 17 56 14.625 54.296875 C12.8416804 51.77622134 12.24903295 50.03116309 11.75 47 C11.60046875 46.154375 11.4509375 45.30875 11.296875 44.4375 C11 42 11 42 11 38 C9.35 37.67 7.7 37.34 6 37 C5.92652344 37.88751953 5.92652344 37.88751953 5.8515625 38.79296875 C5.77679688 39.58316406 5.70203125 40.37335938 5.625 41.1875 C5.55539062 41.96480469 5.48578125 42.74210937 5.4140625 43.54296875 C4.96019318 46.23621217 4.09086365 48.50342994 3 51 C1.22868439 50.69024532 -0.54203778 50.37709575 -2.3125 50.0625 C-3.29863281 49.88847656 -4.28476562 49.71445313 -5.30078125 49.53515625 C-8 49 -8 49 -11 48 C-10.62214179 43.84355968 -10.14424458 40.13375105 -8.6875 36.21875 C-6.30850005 29.28208698 -4.88555211 22.08929529 -3.3125 14.9375 C-2.98936435 13.48492986 -2.66579996 12.03245503 -2.34179688 10.58007812 C-1.55625399 7.05447003 -0.77651374 3.52760918 0 0 Z " fill="#0541DE" transform="translate(280,39)"/>
<path d="M0 0 C4.36441461 2.79795429 6.63068901 6.76178569 8.375 11.5625 C9.45289458 17.14107724 8.47282476 21.78386821 5.71484375 26.7109375 C3.40344767 29.90511167 0.51981043 32.22458172 -2.625 34.5625 C-3.945 35.5525 -5.265 36.5425 -6.625 37.5625 C-4.645 40.8625 -2.665 44.1625 -0.625 47.5625 C-3.97410895 50.91160895 -5.30587301 52.13697712 -9.375 53.8125 C-10.17421875 54.14765625 -10.9734375 54.4828125 -11.796875 54.828125 C-12.40015625 55.07046875 -13.0034375 55.3128125 -13.625 55.5625 C-13.93091064 54.9955542 -14.23682129 54.4286084 -14.55200195 53.84448242 C-16.01093281 51.14474051 -17.47374044 48.44712698 -18.9375 45.75 C-19.47205811 44.76346436 -20.00661621 43.77692871 -20.55737305 42.76049805 C-23.26706172 37.78669625 -26.01742697 32.84883467 -28.90625 27.9765625 C-29.41631592 27.11522705 -29.92638184 26.2538916 -30.4519043 25.36645508 C-31.42880636 23.72811727 -32.41442678 22.09494113 -33.40942383 20.4675293 C-33.84794678 19.73187744 -34.28646973 18.99622559 -34.73828125 18.23828125 C-35.12798096 17.59802002 -35.51768066 16.95775879 -35.91918945 16.2980957 C-36.625 14.5625 -36.625 14.5625 -35.625 11.5625 C-33.53955078 10.13623047 -33.53955078 10.13623047 -30.8203125 8.6796875 C-29.84449219 8.15246094 -28.86867188 7.62523438 -27.86328125 7.08203125 C-26.83589844 6.53933594 -25.80851562 5.99664062 -24.75 5.4375 C-23.73035156 4.88707031 -22.71070312 4.33664063 -21.66015625 3.76953125 C-8.41067004 -3.3352657 -8.41067004 -3.3352657 0 0 Z " fill="#0440DE" transform="translate(135.625,62.4375)"/>
<path d="M0 0 C1.97956441 0.14033111 3.95865141 0.2874123 5.9375 0.4375 C7.03964844 0.51871094 8.14179688 0.59992188 9.27734375 0.68359375 C12 1 12 1 13 2 C13.83793865 5.65688513 14.42199093 9.36655899 15.0625 13.0625 C15.24876953 14.08794922 15.43503906 15.11339844 15.62695312 16.16992188 C16.62288693 21.87191651 17.21536363 27.21297073 17 33 C17.66 33 18.32 33 19 33 C19.22558594 32.20980469 19.45117188 31.41960937 19.68359375 30.60546875 C21.39154424 25.92761028 23.69662929 21.68618177 26.0625 17.3125 C26.9720813 15.62218413 27.87972044 13.93082132 28.78515625 12.23828125 C29.18613525 11.49618408 29.58711426 10.75408691 30.00024414 9.98950195 C31.11929881 7.8811225 31.11929881 7.8811225 32 5 C35.96 5.33 39.92 5.66 44 6 C44.40463421 22.38768547 43.17139831 38.66584747 42 55 C39.03 54.67 36.06 54.34 33 54 C33.33 43.44 33.66 32.88 34 22 C29.71913138 29.88040921 29.71913138 29.88040921 25.50585938 37.796875 C21.09372779 45.63605592 21.09372779 45.63605592 17.74609375 46.75 C15.53125 46.75 15.53125 46.75 12 46 C10.06920206 39.6015261 8.73525163 33.13473949 7.41210938 26.58789062 C7.24388672 25.76869141 7.07566406 24.94949219 6.90234375 24.10546875 C6.67792603 22.99401489 6.67792603 22.99401489 6.44897461 21.86010742 C6.05518347 19.92297706 6.05518347 19.92297706 5 18 C2.69 28.23 0.38 38.46 -2 49 C-4.97 48.67 -7.94 48.34 -11 48 C-10.36985915 41.9940642 -9.21238719 36.31416535 -7.71484375 30.46875 C-7.49429825 29.59222778 -7.27375275 28.71570557 -7.04652405 27.81262207 C-6.34796584 25.04060155 -5.64284691 22.27029999 -4.9375 19.5 C-4.45985022 17.60948517 -3.98263237 15.71886114 -3.50585938 13.828125 C-2.34222959 9.2174726 -1.17271693 4.60834908 0 0 Z " fill="#0943DF" transform="translate(159,417)"/>
<path d="M0 0 C0.83840998 3.76972318 1.6698549 7.5409489 2.5 11.3125 C2.73847656 12.38435547 2.97695312 13.45621094 3.22265625 14.56054688 C3.44824219 15.58857422 3.67382812 16.61660156 3.90625 17.67578125 C4.11572266 18.62364502 4.32519531 19.57150879 4.54101562 20.5480957 C5 23 5 23 5 26 C6.01578125 26.24234375 7.0315625 26.4846875 8.078125 26.734375 C16.53314016 28.78220274 24.79493601 31.07849994 33 34 C31.56150402 35.71531995 30.11167311 37.41788786 28.640625 39.10546875 C27.25043703 40.71080486 25.90163387 42.35183523 24.5625 44 C22 46 22 46 18.6875 46 C14.6479471 44.90452803 10.88046514 43.56580172 7 42 C7.22816406 42.89203125 7.45632812 43.7840625 7.69140625 44.703125 C7.97886719 45.87359375 8.26632813 47.0440625 8.5625 48.25 C8.85253906 49.41015625 9.14257812 50.5703125 9.44140625 51.765625 C10.23968249 56.3878119 10.23968249 56.3878119 9 59 C6.93359375 61.140625 6.93359375 61.140625 4.4375 63.25 C3.61121094 63.95640625 2.78492188 64.6628125 1.93359375 65.390625 C0.97646484 66.18726563 0.97646484 66.18726563 0 67 C-0.99 66.505 -0.99 66.505 -2 66 C-2.68603516 63.82275391 -2.68603516 63.82275391 -3.2890625 60.9765625 C-3.50820312 59.955625 -3.72734375 58.9346875 -3.953125 57.8828125 C-4.17484375 56.80773437 -4.3965625 55.73265625 -4.625 54.625 C-4.96917969 53.02398437 -4.96917969 53.02398437 -5.3203125 51.390625 C-7 43.45210193 -7 43.45210193 -7 40 C-8.19625 39.9175 -9.3925 39.835 -10.625 39.75 C-18.98207779 38.834701 -27.2628935 36.24318562 -35 33 C-31.19524578 28.43969176 -27.25030379 24.14910608 -23 20 C-18 21.66666667 -13 23.33333333 -8 25 C-8.31195313 24.10796875 -8.62390625 23.2159375 -8.9453125 22.296875 C-9.33460937 21.12640625 -9.72390625 19.9559375 -10.125 18.75 C-10.51945312 17.58984375 -10.91390625 16.4296875 -11.3203125 15.234375 C-12 12 -12 12 -11.3671875 9.84375 C-9.72331918 7.62687615 -7.95940008 5.69499272 -6 3.75 C-5.29875 3.04359375 -4.5975 2.3371875 -3.875 1.609375 C-2 0 -2 0 0 0 Z " fill="#0641DE" transform="translate(77,91)"/>
<path d="M0 0 C4.37859255 0.50522222 6.81651224 3.17827222 10 6 C8.57989987 9.91776366 6.7145562 13.20298603 4.4375 16.6875 C2.07724372 20.26284941 2.07724372 20.26284941 0 24 C1.98 24.33 3.96 24.66 6 25 C8.31 21.04 10.62 17.08 13 13 C17.26511313 14.70604525 19.61418999 16.09787714 23 19 C22.31238981 22.65564909 20.74550455 25.51867272 18.9375 28.75 C18.38964844 29.73484375 17.84179688 30.7196875 17.27734375 31.734375 C16.85582031 32.48203125 16.43429688 33.2296875 16 34 C18.97 34.495 18.97 34.495 22 35 C24.97 29.72 27.94 24.44 31 19 C35.26511313 20.70604525 37.61418999 22.09787714 41 25 C40.48005478 30.06210816 38.01490499 33.58522072 35.3125 37.75 C34.86277832 38.45576172 34.41305664 39.16152344 33.94970703 39.88867188 C30.70091641 44.97008371 27.40284931 50.02022053 24 55 C17.79853931 51.66691519 11.81226999 48.0473628 5.8359375 44.328125 C2.91332004 42.53323095 -0.04627748 40.8122076 -3.0234375 39.109375 C-3.88727051 38.61518066 -4.75110352 38.12098633 -5.64111328 37.61181641 C-7.36340442 36.63027485 -9.08829968 35.65328693 -10.81591797 34.68115234 C-11.60369629 34.2320752 -12.39147461 33.78299805 -13.203125 33.3203125 C-13.91114258 32.92086426 -14.61916016 32.52141602 -15.34863281 32.10986328 C-17 31 -17 31 -18 29 C-16.78417969 26.54150391 -16.78417969 26.54150391 -14.921875 23.4765625 C-14.25542969 22.373125 -13.58898437 21.2696875 -12.90234375 20.1328125 C-12.37229736 19.26897949 -12.37229736 19.26897949 -11.83154297 18.38769531 C-10.76126728 16.64336337 -9.70187351 14.8928204 -8.64453125 13.140625 C-3.03126033 3.89650514 -3.03126033 3.89650514 0 0 Z " fill="#0541DE" transform="translate(28,142)"/>
<path d="M0 0 C3.90503313 1.47109575 7.50821449 3.27046105 11.17578125 5.2578125 C12.33271484 5.88300781 13.48964844 6.50820312 14.68164062 7.15234375 C15.89195902 7.80983705 17.10224507 8.46738988 18.3125 9.125 C19.54218334 9.79061287 20.77199975 10.45597998 22.00195312 11.12109375 C25.00261946 12.74498376 28.00190626 14.37136671 31 16 C30.27031096 20.50871015 28.67844067 23.28474359 26 27 C20.83928262 25.64191648 16.74292191 23.15031499 12.26953125 20.33984375 C9.96285499 18.87096434 9.96285499 18.87096434 7 18 C6.34 19.98 5.68 21.96 5 24 C5.66 24.2475 6.32 24.495 7 24.75 C10.76360907 26.31817045 14.3711424 28.14505046 18 30 C17.46884894 34.51478398 15.63379708 37.34666857 13 41 C9.9256278 39.88204647 7.17284588 38.55014339 4.375 36.875 C1.20639825 34.75717853 1.20639825 34.75717853 -2 35 C-2.33 36.65 -2.66 38.3 -3 40 C2.28 42.97 7.56 45.94 13 49 C11.51799926 52.70500184 10.091496 55.67262 8 59 C3.99429803 58.4059762 1.08930666 57.13816438 -2.4140625 55.12890625 C-3.42210937 54.55462891 -4.43015625 53.98035156 -5.46875 53.38867188 C-6.5103125 52.78603516 -7.551875 52.18339844 -8.625 51.5625 C-9.67429687 50.96373047 -10.72359375 50.36496094 -11.8046875 49.74804688 C-19.39769345 45.4015377 -19.39769345 45.4015377 -23 43 C-21.38834476 38.46994204 -19.04484435 34.5871843 -16.5625 30.5 C-10.60912773 20.56033132 -5.28941253 10.30418833 0 0 Z " fill="#0541DE" transform="translate(345,60)"/>
<path d="M0 0 C1.27484253 0.04966919 1.27484253 0.04966919 2.57543945 0.1003418 C3.68278442 0.14348511 3.68278442 0.14348511 4.8125 0.1875 C9.3914401 8.9823766 13.39778906 17.94998703 17.24658203 27.08203125 C18.20171079 29.34618702 19.16495078 31.60677755 20.12890625 33.8671875 C20.74006166 35.30969327 21.35075663 36.75239423 21.9609375 38.1953125 C22.24834808 38.86917999 22.53575867 39.54304749 22.83187866 40.23733521 C24.8125 44.95729751 24.8125 44.95729751 24.8125 47.1875 C21.1825 47.1875 17.5525 47.1875 13.8125 47.1875 C12.3275 42.7325 12.3275 42.7325 10.8125 38.1875 C4.72342364 38.07473933 -1.13313254 38.5147925 -7.1875 39.1875 C-7.5175 42.8175 -7.8475 46.4475 -8.1875 50.1875 C-11.66075181 51.3452506 -14.54817448 51.25616652 -18.1875 51.1875 C-16.75378978 41.73203481 -14.83529949 32.40279725 -12.78344727 23.06616211 C-12.42453501 21.42370737 -12.0707825 19.78011751 -11.72192383 18.13549805 C-11.21216912 15.73236869 -10.68793178 13.33282135 -10.16015625 10.93359375 C-10.00692398 10.1992662 -9.85369171 9.46493866 -9.69581604 8.70835876 C-8.23607761 2.22408582 -6.79145043 -0.26460196 0 0 Z " fill="#0642DE" transform="translate(242.1875,420.8125)"/>
<path d="M0 0 C1.25664978 2.90600261 2 4.79604584 2 8 C-3.28 10.97 -8.56 13.94 -14 17 C-12.74646003 20.13384992 -11.53924548 23.03145514 -10 26 C-6.49133684 24.9730742 -3.43529202 23.74867521 -0.3125 21.875 C3 20 3 20 6 20 C7.26972153 22.09130605 8.02600286 23.46260754 7.90625 25.9375 C6.54421105 29.03731278 4.40748806 29.74793707 1.4375 31.25 C-0.08037109 32.03117187 -0.08037109 32.03117187 -1.62890625 32.828125 C-2.41136719 33.21484375 -3.19382812 33.6015625 -4 34 C-3.31620454 37.95008059 -2.21156817 40.63457018 0 44 C5.60940843 42.36772015 9.74301138 39.65454678 14.51171875 36.36328125 C15.33285156 35.91339844 16.15398437 35.46351563 17 35 C17.99 35.33 18.98 35.66 20 36 C21.1875 39.5625 21.1875 39.5625 22 43 C21.37955811 43.35304199 20.75911621 43.70608398 20.11987305 44.06982422 C17.30843676 45.67041914 14.49795913 47.27268997 11.6875 48.875 C10.22280273 49.70837891 10.22280273 49.70837891 8.72851562 50.55859375 C7.79072266 51.09355469 6.85292969 51.62851562 5.88671875 52.1796875 C5.02264404 52.67194824 4.15856934 53.16420898 3.26831055 53.67138672 C1.47589565 54.72125453 -0.27162232 55.84774821 -2 57 C-2.99 57 -3.98 57 -5 57 C-5.30591064 56.42781738 -5.61182129 55.85563477 -5.92700195 55.26611328 C-7.38347776 52.54949167 -8.84696833 49.83674727 -10.3125 47.125 C-11.11324951 45.6402417 -11.11324951 45.6402417 -11.93017578 44.12548828 C-15.94085479 36.76136716 -20.20837631 29.60763863 -24.87231445 22.63720703 C-26.2109375 20.5546875 -26.2109375 20.5546875 -28 17 C-27.19058532 14.0393028 -26.13713448 13.0941962 -23.6015625 11.35253906 C-22.61929687 10.82885742 -21.63703125 10.30517578 -20.625 9.765625 C-19.55765625 9.19199219 -18.4903125 8.61835938 -17.390625 8.02734375 C-16.27171875 7.44082031 -15.1528125 6.85429687 -14 6.25 C-12.88109375 5.64800781 -11.7621875 5.04601562 -10.609375 4.42578125 C-2.2997449 0 -2.2997449 0 0 0 Z " fill="#0742DE" transform="translate(347,384)"/>
<path d="M0 0 C0.95902434 3.66648628 1.91709313 7.33322162 2.875 11 C3.14441406 12.02996094 3.41382813 13.05992188 3.69140625 14.12109375 C4.22036767 16.14662895 4.74742268 18.17266308 5.27246094 20.19921875 C5.72272635 21.9325895 6.17809075 23.66465529 6.64160156 25.39453125 C7.52589017 28.75701138 8 31.49033999 8 35 C8.65226562 34.7834375 9.30453125 34.566875 9.9765625 34.34375 C14.77521132 32.81497692 18.89921898 31.59730676 24 32 C25.32700717 35.98102152 25.03374068 39.84989611 25 44 C15.72438198 46.84901749 6.6131836 49.53215325 -3 51 C-3.12004395 50.46334717 -3.24008789 49.92669434 -3.36376953 49.3737793 C-5.80614836 38.55309905 -8.44873089 27.90146492 -12.03173828 17.39526367 C-13.64360209 12.5720052 -14.51899719 8.06770816 -15 3 C-13.25183142 2.49363393 -11.50137737 1.99515381 -9.75 1.5 C-8.77546875 1.2215625 -7.8009375 0.943125 -6.796875 0.65625 C-4 0 -4 0 0 0 Z " fill="#0742DE" transform="translate(172,44)"/>
<path d="M0 0 C1.32 2.64 2.64 5.28 4 8 C3.14535156 8.36351562 2.29070312 8.72703125 1.41015625 9.1015625 C0.30542969 9.60429687 -0.79929687 10.10703125 -1.9375 10.625 C-3.03964844 11.11226563 -4.14179688 11.59953125 -5.27734375 12.1015625 C-8.28713711 13.77383313 -8.28713711 13.77383313 -8.87890625 17.0859375 C-8.94693609 18.72304272 -9 20.3614819 -9 22 C-4.84573766 22.14576359 -1.68292253 22.20616529 2.3125 21 C7.63149881 19.55755965 13.83569859 18.42412767 18.96875 20.98046875 C23.12158419 24.28848618 24.7802011 27.09507617 25.375 32.25 C24.61493535 39.85064654 21.0586177 44.72248201 15.23828125 49.5234375 C11.73602034 51.83382951 8.05348105 53.01477891 4 54 C0 48.375 0 48.375 0 45 C0.66386719 44.82984375 1.32773437 44.6596875 2.01171875 44.484375 C9.26141237 42.59120481 9.26141237 42.59120481 15 38 C15.50095023 34.87306228 15.50095023 34.87306228 15 32 C13.80026068 30.57683193 13.80026068 30.57683193 10.3125 30.8125 C7.54388405 30.83695774 5.83980885 31.05695685 3.1875 32 C-1.93269924 33.60633702 -7.97967604 34.44736317 -12.97265625 32.0546875 C-17.43709987 28.56649813 -18.72195474 25.10519985 -19.4375 19.6875 C-18.57665147 12.43177668 -14.22252031 7.75441633 -8.74609375 3.2265625 C-5.72142197 1.10184899 -3.74743261 0 0 0 Z " fill="#0642DE" transform="translate(381,358)"/>
<path d="M0 0 C0.99 0.33 1.98 0.66 3 1 C2.14081051 5.86200169 1.27737758 10.71642108 0.234375 15.54296875 C-10.36714134 64.86080702 0.19219365 119.10997908 27.25390625 161.46240234 C47.79492027 192.6658664 75.32989485 217.63843328 109 234 C108.67 234.99 108.34 235.98 108 237 C101.04769454 234.46873667 94.89087625 231.39573082 88.6875 227.375 C87.86427246 226.84648437 87.04104492 226.31796875 86.19287109 225.7734375 C74.12549964 217.93423933 63.36459064 208.95985557 53 199 C52.10152344 198.14277344 51.20304687 197.28554688 50.27734375 196.40234375 C18.57503587 165.48401876 0.00240938 123.41028212 -6 80 C-6.09861328 79.31462158 -6.19722656 78.62924316 -6.29882812 77.9230957 C-9.50138333 53.11769281 -8.46245018 23.62612994 0 0 Z " fill="#154CE0" transform="translate(36,197)"/>
<path d="M0 0 C0.495 3.96 0.495 3.96 1 8 C-3.95 9.485 -3.95 9.485 -9 11 C-6.62967641 20.04013002 -3.75746337 28.82742176 -0.69726562 37.65429688 C-0.34986328 38.67458984 -0.00246094 39.69488281 0.35546875 40.74609375 C0.67153076 41.66060303 0.98759277 42.5751123 1.31323242 43.51733398 C2 46 2 46 2 50 C-1.85257619 51.87125129 -3.87951136 51.99030231 -8 51 C-9.57218899 46.21463074 -11.13861184 41.42742755 -12.69970703 36.63842773 C-13.2316511 35.00932875 -13.76517079 33.38074336 -14.30029297 31.75268555 C-15.06892478 29.41327835 -15.83188251 27.07208626 -16.59375 24.73046875 C-16.83436157 24.00224411 -17.07497314 23.27401947 -17.32287598 22.52372742 C-18.2806755 19.56424163 -19 17.13199482 -19 14 C-19.68707031 14.28875 -20.37414062 14.5775 -21.08203125 14.875 C-21.98308594 15.24625 -22.88414062 15.6175 -23.8125 16 C-24.70582031 16.37125 -25.59914063 16.7425 -26.51953125 17.125 C-29 18 -29 18 -32 18 C-32.66 15.36 -33.32 12.72 -34 10 C-29.96496125 8.56586202 -25.92646914 7.14205235 -21.88452148 5.72753906 C-20.51114027 5.24531024 -19.13872715 4.76031478 -17.76733398 4.27246094 C-15.79140698 3.57010023 -13.81216654 2.87789338 -11.83203125 2.1875 C-10.64327393 1.76855469 -9.4545166 1.34960938 -8.22973633 0.91796875 C-5.27858126 0.0791795 -3.03885645 -0.20041922 0 0 Z " fill="#0843DF" transform="translate(306,406)"/>
<path d="M0 0 C0.66 0 1.32 0 2 0 C3.17304896 42.75673241 -3.79301676 88.14105272 -31 123 C-31.99 122.67 -32.98 122.34 -34 122 C-33.68289063 121.42636719 -33.36578125 120.85273438 -33.0390625 120.26171875 C-31.69170961 117.80894097 -30.35800567 115.34906961 -29.02734375 112.88720703 C-28.31168873 111.57256508 -27.58985281 110.26127698 -26.86328125 108.95263672 C-13.36291044 84.62247816 -5.15695041 59.61988763 -2 32 C-1.8618689 30.7927124 -1.8618689 30.7927124 -1.72094727 29.56103516 C-1.03557216 23.17392244 -0.69880605 16.7919911 -0.4375 10.375 C-0.37272461 8.86873047 -0.37272461 8.86873047 -0.30664062 7.33203125 C-0.20190141 4.88811617 -0.09972744 2.44412383 0 0 Z " fill="#144CE0" transform="translate(430,241)"/>
<path d="M0 0 C2.61593153 1.83115207 2.96989455 2.90968366 4 6 C4.22373872 8.99621866 4.18513857 11.99625668 4.1875 15 C4.19974609 15.81984375 4.21199219 16.6396875 4.22460938 17.484375 C4.22750977 18.66773438 4.22750977 18.66773438 4.23046875 19.875 C4.23457764 20.59429687 4.23868652 21.31359375 4.24291992 22.0546875 C4 24 4 24 2 27 C-0.05859375 27.46875 -0.05859375 27.46875 -2.4375 27.5 C-3.61119141 27.54640625 -3.61119141 27.54640625 -4.80859375 27.59375 C-7 27 -7 27 -8.76171875 25.0703125 C-10.48883151 20.78794459 -10.43736666 16.94855518 -10.375 12.375 C-10.38660156 11.51648437 -10.39820313 10.65796875 -10.41015625 9.7734375 C-10.40628906 8.9484375 -10.40242187 8.1234375 -10.3984375 7.2734375 C-10.39505371 6.52497559 -10.39166992 5.77651367 -10.38818359 5.00537109 C-9.29062642 -0.66465071 -4.96813073 -0.53229972 0 0 Z " fill="#FCFCFE" transform="translate(234,47)"/>
<path d="M0 0 C3.46566672 2.73714819 4.65796074 6.57059135 6.1875 10.5625 C6.46013672 11.24763672 6.73277344 11.93277344 7.01367188 12.63867188 C9 17.71152491 9 17.71152491 9 20 C2.565 20.495 2.565 20.495 -4 21 C-3.39700836 13.76410027 -1.8849413 7.00629124 0 0 Z " fill="#E9EEFC" transform="translate(241,431)"/>
<path d="M0 0 C2.67927341 4.01891012 2.15601248 6.24161923 2 11 C0.02 11.66 -1.96 12.32 -4 13 C-5.03320481 11.40377344 -6.05122429 9.79770894 -7.0625 8.1875 C-7.63097656 7.29417969 -8.19945313 6.40085937 -8.78515625 5.48046875 C-10 3 -10 3 -9 0 C-5.85135005 -1.57432497 -3.35512575 -0.71895552 0 0 Z " fill="#F5F7FD" transform="translate(127,76)"/>
<path d="M0 0 C5.75 0.75 5.75 0.75 8 3 C8.43940752 6.95466772 8.56972219 9.15596712 6.3125 12.5 C4 14 4 14 1.3125 13.8125 C-1 13 -1 13 -2 12 C-1.9140625 10.0390625 -1.9140625 10.0390625 -1.625 7.625 C-1.48964844 6.43777344 -1.48964844 6.43777344 -1.3515625 5.2265625 C-1 3 -1 3 0 0 Z " fill="#EFF3FD" transform="translate(292,53)"/>
<path d="M0 0 C-0.590118 3.78369777 -2.26445274 5.89068624 -4.75 8.75 C-5.76320313 9.94882812 -5.76320313 9.94882812 -6.796875 11.171875 C-9 13 -9 13 -11.765625 13.265625 C-12.87164062 13.13414062 -12.87164062 13.13414062 -14 13 C-13.46537463 8.45568437 -11.95036951 5.49385863 -9 2 C-5.88698418 0.8192009 -3.33306733 0 0 0 Z " fill="#1049E0" transform="translate(271,340)"/>
<path d="M0 0 C0 0.66 0 1.32 0 2 C-0.88042969 2.18175781 -1.76085937 2.36351562 -2.66796875 2.55078125 C-3.82941406 2.80214844 -4.99085938 3.05351562 -6.1875 3.3125 C-7.33605469 3.55613281 -8.48460937 3.79976562 -9.66796875 4.05078125 C-12.92842233 4.97960918 -15.27557231 5.99674434 -18 8 C-18.88658466 10.59122743 -18.88658466 10.59122743 -19 13 C-20.32 12.34 -21.64 11.68 -23 11 C-22.65638105 8.45721976 -22.34971457 6.50514327 -20.875 4.375 C-14.18200372 -0.53319727 -8.05441217 -0.35709217 0 0 Z " fill="#114AE0" transform="translate(356,210)"/>
<path d="M0 0 C0.66 0 1.32 0 2 0 C6.31313131 19.71717172 6.31313131 19.71717172 4 25.5 C3.67 25.995 3.34 26.49 3 27 C2.67 27 2.34 27 2 27 C1.23363909 23.53910321 0.82850629 20.23922512 0.68359375 16.69921875 C0.64169922 15.72275391 0.59980469 14.74628906 0.55664062 13.74023438 C0.51732422 12.73283203 0.47800781 11.72542969 0.4375 10.6875 C0.39431641 9.66076172 0.35113281 8.63402344 0.30664062 7.57617188 C0.20093175 5.05090431 0.09883532 2.52554438 0 0 Z " fill="#E7EDFB" transform="translate(275,282)"/>
<path d="M0 0 C1.32 0 2.64 0 4 0 C3.67 2.97 3.34 5.94 3 9 C2.01 9.33 1.02 9.66 0 10 C0 9.34 0 8.68 0 8 C-1.32 8 -2.64 8 -4 8 C-4.33 8.99 -4.66 9.98 -5 11 C-6.32 11 -7.64 11 -9 11 C-8.67 9.35 -8.34 7.7 -8 6 C-6.576875 5.9071875 -6.576875 5.9071875 -5.125 5.8125 C-4.09375 5.544375 -3.0625 5.27625 -2 5 C-0.54708727 2.53744315 -0.54708727 2.53744315 0 0 Z " fill="#184FE1" transform="translate(249,214)"/>
<path d="M0 0 C0.99 0.33 1.98 0.66 3 1 C1.74602127 8.01694482 0.42415912 15.01556007 -1 22 C-1.99 21.34 -2.98 20.68 -4 20 C-3.56615452 12.96871122 -2.25678003 6.670985 0 0 Z " fill="#1F54E2" transform="translate(36,197)"/>
<path d="M0 0 C0.99 0 1.98 0 3 0 C3.66 2.31 4.32 4.62 5 7 C6.32 7 7.64 7 9 7 C10.125 9.25 10.125 9.25 11 12 C10.125 14.3125 10.125 14.3125 9 16 C8.67 14.35 8.34 12.7 8 11 C7.05125 10.731875 6.1025 10.46375 5.125 10.1875 C2 9 2 9 0 6 C-0.125 2.8125 -0.125 2.8125 0 0 Z " fill="#DDE5FA" transform="translate(293,289)"/>
<path d="M0 0 C1.23556641 0.01740234 1.23556641 0.01740234 2.49609375 0.03515625 C3.32238281 0.04417969 4.14867187 0.05320313 5 0.0625 C5.63808594 0.07410156 6.27617187 0.08570313 6.93359375 0.09765625 C7.26359375 1.74765625 7.59359375 3.39765625 7.93359375 5.09765625 C4.96359375 5.09765625 1.99359375 5.09765625 -1.06640625 5.09765625 C-1.72640625 3.77765625 -2.38640625 2.45765625 -3.06640625 1.09765625 C-2.06640625 0.09765625 -2.06640625 0.09765625 0 0 Z " fill="#0742DF" transform="translate(241.06640625,191.90234375)"/>
<path d="M0 0 C0.99 0 1.98 0 3 0 C2.855625 0.680625 2.71125 1.36125 2.5625 2.0625 C1.93054091 5.36273082 1.45686059 8.67144426 1 12 C0.01 12 -0.98 12 -2 12 C-2.66 13.32 -3.32 14.64 -4 16 C-5.35304209 11.94087374 -4.15216503 10.22850409 -2.5625 6.3125 C-2.08941406 5.13300781 -1.61632812 3.95351562 -1.12890625 2.73828125 C-0.75636719 1.83464844 -0.38382812 0.93101562 0 0 Z " fill="#E4EAFB" transform="translate(358,225)"/>
<path d="M0 0 C0.66 0.33 1.32 0.66 2 1 C1.01 4.63 0.02 8.26 -1 12 C-1.99 12 -2.98 12 -4 12 C-2.84965035 3.45454545 -2.84965035 3.45454545 -2 1 C-1.34 0.67 -0.68 0.34 0 0 Z " fill="#2055E2" transform="translate(425,300)"/>
<path d="M0 0 C1.60294922 0.01353516 1.60294922 0.01353516 3.23828125 0.02734375 C4.04652344 0.03894531 4.85476563 0.05054688 5.6875 0.0625 C5.6875 0.3925 5.6875 0.7225 5.6875 1.0625 C-3.2225 2.5475 -3.2225 2.5475 -12.3125 4.0625 C-11.9825 3.0725 -11.6525 2.0825 -11.3125 1.0625 C-7.47525828 0.15836327 -3.93747726 -0.04326898 0 0 Z " fill="#3B6AE5" transform="translate(307.3125,162.9375)"/>
<path d="M0 0 C0.33 0 0.66 0 1 0 C0.67 3.3 0.34 6.6 0 10 C-0.99 10 -1.98 10 -3 10 C-2.69201674 8.51988629 -2.378482 7.04092675 -2.0625 5.5625 C-1.88847656 4.73878906 -1.71445312 3.91507812 -1.53515625 3.06640625 C-1 1 -1 1 0 0 Z " fill="#0943DF" transform="translate(427,291)"/>
<path d="M0 0 C0.99 0 1.98 0 3 0 C2.50168276 3.68754757 1.89932357 5.60490662 -1 8 C-2 6 -2 6 -1.0625 2.875 C-0.5365625 1.451875 -0.5365625 1.451875 0 0 Z " fill="#BCCCF6" transform="translate(358,225)"/>
<path d="M0 0 C1.32 0 2.64 0 4 0 C4 0.99 4 1.98 4 3 C3.01 3 2.02 3 1 3 C0.67 3.66 0.34 4.32 0 5 C-1.32 4.34 -2.64 3.68 -4 3 C-3.01 2.67 -2.02 2.34 -1 2 C-0.67 1.34 -0.34 0.68 0 0 Z " fill="#D5DFF9" transform="translate(245,222)"/>
<path d="M0 0 C1.98 0.99 1.98 0.99 4 2 C3.34 3.65 2.68 5.3 2 7 C1.34 6.67 0.68 6.34 0 6 C0 4.02 0 2.04 0 0 Z " fill="#CEDAF8" transform="translate(305,221)"/>
<path d="M0 0 C0.99 0.33 1.98 0.66 3 1 C2.67 3.31 2.34 5.62 2 8 C1.01 7.34 0.02 6.68 -1 6 C-0.67 4.02 -0.34 2.04 0 0 Z " fill="#295CE3" transform="translate(36,197)"/>
<path d="M0 0 C0.33 0 0.66 0 1 0 C1 3.3 1 6.6 1 10 C0.34 8.68 -0.32 7.36 -1 6 C-1.99 6.495 -1.99 6.495 -3 7 C-1.125 2.25 -1.125 2.25 0 0 Z " fill="#D1DBF9" transform="translate(193,437)"/>
</svg>
